<?xml version="1.0" encoding="iso-8859-1"?>
<!-- Generator: Adobe Illustrator 19.0.0, SVG Export Plug-In . SVG Version: 6.00 Build 0)  -->
<svg version="1.1" id="Capa_1" xmlns="http://www.w3.org/2000/svg" xmlns:xlink="http://www.w3.org/1999/xlink" x="0px" y="0px"
	 viewBox="0 0 512 512" style="enable-background:new 0 0 512 512;" xml:space="preserve">
<g>
	<g transform="translate(1 1)">
		<path style="fill:#D4E1F4;" d="M255,7.533C189.02,7.533,135.533,61.02,135.533,127v76.8h34.133V127
			c0-47.128,38.205-85.333,85.333-85.333S340.333,79.872,340.333,127v76.8h34.133V127C374.467,61.02,320.98,7.533,255,7.533z"/>
		<path style="fill:#A4C2F7;" d="M425.667,229.4v187.733c0,47.128-38.205,85.333-85.333,85.333H169.667
			c-47.128,0-85.333-38.205-85.333-85.333V229.4c0-18.851,15.282-34.133,34.133-34.133h273.067
			C410.385,195.267,425.667,210.549,425.667,229.4z"/>
		<g>
			<path style="fill:#E3E7F2;" d="M400.067,229.4v187.733c0,47.128-38.205,85.333-85.333,85.333H169.667
				c-47.128,0-85.333-38.205-85.333-85.333V229.4c0-18.851,15.282-34.133,34.133-34.133h247.467
				C384.785,195.267,400.067,210.549,400.067,229.4z"/>
			<circle style="fill:#E3E7F2;" cx="255" cy="314.733" r="34.133"/>
			<path style="fill:#E3E7F2;" d="M272.067,344.259v47.275c0,9.426-7.641,17.067-17.067,17.067s-17.067-7.641-17.067-17.067v-47.275
				"/>
		</g>
		<path style="fill:#A4C2F7;" d="M374.467,127v76.8h-25.6V127C348.869,65.973,302.876,14.755,242.2,8.216
			c4.252-0.445,8.525-0.673,12.8-0.683C320.98,7.533,374.467,61.02,374.467,127z"/>
		<path style="fill:#FFFFFF;" d="M109.933,417.133V229.4c0-18.851,15.282-34.133,34.133-34.133h17.067V127
			C161.144,65.983,207.134,14.779,267.8,8.242c-4.251-0.465-8.524-0.701-12.8-0.708c-4.196,0.006-8.388,0.228-12.561,0.666H242.2
			h0.077C181.564,14.702,135.526,65.94,135.533,127v68.267h-17.067c-18.851,0-34.133,15.282-34.133,34.133v187.733
			c0,47.128,38.205,85.333,85.333,85.333h25.6C148.138,502.467,109.933,464.262,109.933,417.133z"/>
	</g>
	<g>
		<polygon style="fill:#FFFFFF;" points="93.867,230.4 93.867,341.333 93.867,418.133 76.8,418.133 76.8,341.333 76.8,230.4 		"/>
		<g>
			<path style="fill:#428DFF;" d="M85.333,307.2c3.467,0.02,6.601-2.059,7.931-5.261s0.59-6.89-1.872-9.331l-1.28-1.024
				c-0.476-0.323-0.992-0.581-1.536-0.768c-0.484-0.247-1.001-0.419-1.536-0.512c-0.564-0.095-1.135-0.152-1.707-0.171
				c-2.259,0.033-4.422,0.917-6.059,2.475c-0.771,0.816-1.38,1.772-1.792,2.816c-1.287,3.183-0.586,6.825,1.792,9.301
				c0.816,0.771,1.772,1.38,2.816,1.792C83.117,306.955,84.218,307.187,85.333,307.2z"/>
			<path style="fill:#428DFF;" d="M392.533,187.733H384V128C384,57.308,326.692,0,256,0S128,57.308,128,128v59.733h-8.533
				C95.914,187.762,76.828,206.848,76.8,230.4v34.133c0,4.713,3.821,8.533,8.533,8.533s8.533-3.82,8.533-8.533V230.4
				c0-14.138,11.462-25.6,25.6-25.6h273.067c14.138,0,25.6,11.462,25.6,25.6v187.733c-0.047,42.396-34.404,76.753-76.8,76.8H170.667
				c-42.396-0.047-76.753-34.404-76.8-76.8V332.8c0-4.713-3.821-8.533-8.533-8.533s-8.533,3.82-8.533,8.533v85.333
				c0.061,51.816,42.051,93.806,93.867,93.867h170.667c51.816-0.061,93.806-42.051,93.867-93.867V230.4
				C435.172,206.848,416.086,187.762,392.533,187.733z M179.2,187.733V128c0-42.415,34.385-76.8,76.8-76.8s76.8,34.385,76.8,76.8
				v59.733H179.2z M349.867,187.733V128c0-51.841-42.026-93.867-93.867-93.867S162.133,76.159,162.133,128v59.733h-17.067V128
				c0-61.267,49.667-110.933,110.933-110.933S366.933,66.733,366.933,128v59.733H349.867z"/>
			<path style="fill:#428DFF;" d="M213.333,315.733c0.039,13.359,6.361,25.921,17.067,33.911v42.889c0,14.138,11.462,25.6,25.6,25.6
				c14.139,0,25.6-11.462,25.6-25.6v-42.889c15.971-12.068,21.381-33.63,13.001-51.809c-8.38-18.179-28.289-28.069-47.838-23.764
				C227.214,278.378,213.301,295.716,213.333,315.733z M264.533,392.533c0,4.713-3.821,8.533-8.533,8.533
				c-4.713,0-8.533-3.82-8.533-8.533v-34.987c5.631,1.149,11.436,1.149,17.067,0V392.533z M256,290.133
				c14.139,0,25.6,11.462,25.6,25.6c0,14.138-11.461,25.6-25.6,25.6c-14.138,0-25.6-11.462-25.6-25.6
				C230.4,301.595,241.862,290.133,256,290.133z"/>
			<path style="fill:#428DFF;" d="M241.434,253.5c3.332,3.331,8.734,3.331,12.066,0l2.5-2.5l2.5,2.5
				c3.348,3.234,8.671,3.188,11.962-0.104c3.292-3.292,3.338-8.614,0.104-11.962l-2.5-2.5l2.5-2.5
				c3.234-3.348,3.188-8.671-0.104-11.962c-3.292-3.292-8.614-3.338-11.962-0.104l-2.5,2.5l-2.5-2.5
				c-3.348-3.234-8.671-3.188-11.962,0.104c-3.292,3.292-3.338,8.614-0.104,11.962l2.5,2.5l-2.5,2.5
				C238.102,244.766,238.102,250.167,241.434,253.5z"/>
			<path style="fill:#428DFF;" d="M270.566,437.7c-3.332-3.331-8.734-3.331-12.066,0l-2.5,2.5l-2.5-2.5
				c-3.348-3.234-8.671-3.188-11.962,0.104c-3.292,3.292-3.338,8.614-0.104,11.962l2.5,2.5l-2.5,2.5
				c-2.218,2.143-3.108,5.315-2.327,8.299s3.111,5.314,6.094,6.094c2.984,0.781,6.156-0.109,8.299-2.327l2.5-2.5l2.5,2.5
				c3.348,3.234,8.671,3.188,11.962-0.104c3.292-3.292,3.338-8.614,0.104-11.962l-2.5-2.5l2.5-2.5
				C273.898,446.434,273.898,441.033,270.566,437.7z"/>
			<path style="fill:#428DFF;" d="M208,233.327c-2.186-0.586-4.516-0.28-6.476,0.851c-1.96,1.131-3.391,2.995-3.977,5.182
				l-0.913,3.413l-3.413-0.913c-2.975-0.885-6.195-0.085-8.41,2.09c-2.215,2.174-3.075,5.379-2.245,8.37
				c0.829,2.991,3.217,5.295,6.235,6.018l3.413,0.922l-0.913,3.413c-0.586,2.186-0.28,4.516,0.851,6.476
				c1.131,1.96,2.995,3.391,5.182,3.977c0.724,0.192,1.47,0.29,2.219,0.29c3.859-0.003,7.235-2.596,8.235-6.323l0.913-3.413
				l3.413,0.922c0.724,0.192,1.47,0.29,2.219,0.29c4.282-0.002,7.899-3.178,8.456-7.423c0.557-4.245-2.118-8.246-6.255-9.354
				l-3.413-0.913l0.913-3.413c0.589-2.187,0.284-4.519-0.848-6.482C212.054,235.345,210.188,233.913,208,233.327z"/>
			<path style="fill:#428DFF;" d="M304,457.873c0.723,0.196,1.469,0.294,2.219,0.29c3.859-0.003,7.235-2.596,8.235-6.323
				l0.913-3.413l3.413,0.913c0.723,0.196,1.469,0.294,2.219,0.29c4.27-0.018,7.869-3.189,8.425-7.422
				c0.556-4.233-2.103-8.226-6.223-9.346l-3.413-0.922l0.913-3.413c1.221-4.553-1.48-9.233-6.033-10.453
				c-4.553-1.221-9.233,1.48-10.453,6.033l-0.913,3.413l-3.413-0.922c-4.553-1.221-9.233,1.48-10.453,6.033
				c-1.221,4.553,1.48,9.233,6.033,10.453l3.413,0.913l-0.913,3.413c-0.589,2.187-0.284,4.519,0.848,6.482
				C299.946,455.855,301.812,457.287,304,457.873z"/>
			<path style="fill:#428DFF;" d="M143.727,297.6c1.22,4.549,5.895,7.249,10.445,6.033l3.413-0.913l0.913,3.413
				c0.999,3.727,4.376,6.32,8.235,6.323c0.749,0,1.495-0.098,2.219-0.29c2.186-0.586,4.05-2.017,5.182-3.977
				c1.131-1.96,1.438-4.29,0.851-6.476l-0.922-3.413l3.413-0.913c4.553-1.221,7.254-5.901,6.033-10.453
				c-1.221-4.553-5.901-7.254-10.453-6.033l-3.413,0.913l-0.922-3.413c-0.723-3.018-3.028-5.406-6.018-6.235
				c-2.991-0.829-6.196,0.03-8.37,2.245c-2.174,2.215-2.974,5.436-2.09,8.41l0.913,3.413l-3.413,0.913
				C145.197,288.374,142.505,293.053,143.727,297.6z"/>
			<path style="fill:#428DFF;" d="M368.273,393.6c-1.22-4.549-5.895-7.249-10.445-6.033l-3.413,0.913l-0.913-3.413
				c-1.221-4.553-5.901-7.254-10.453-6.033c-4.553,1.221-7.254,5.901-6.033,10.453l0.922,3.413l-3.413,0.913
				c-4.136,1.107-6.812,5.108-6.255,9.354c0.557,4.245,4.174,7.421,8.456,7.423c0.749,0,1.495-0.098,2.219-0.29l3.413-0.913
				l0.922,3.413c0.999,3.724,4.37,6.316,8.226,6.323c0.749,0,1.495-0.098,2.219-0.29c2.186-0.586,4.05-2.017,5.182-3.977
				c1.131-1.96,1.438-4.29,0.851-6.476l-0.913-3.413l3.413-0.913C366.803,402.826,369.495,398.148,368.273,393.6z"/>
			<path style="fill:#428DFF;" d="M134.767,360.166c3.332,3.331,8.734,3.331,12.066,0l2.5-2.5l2.5,2.5
				c3.348,3.234,8.671,3.188,11.962-0.104c3.292-3.292,3.338-8.614,0.104-11.962l-2.5-2.5l2.5-2.5
				c3.234-3.348,3.188-8.671-0.104-11.962c-3.292-3.292-8.614-3.338-11.962-0.104l-2.5,2.5l-2.5-2.5
				c-3.348-3.234-8.671-3.188-11.962,0.104c-3.292,3.292-3.338,8.614-0.104,11.962l2.5,2.5l-2.5,2.5
				C131.436,351.433,131.436,356.834,134.767,360.166z"/>
			<path style="fill:#428DFF;" d="M377.233,331.034c-3.332-3.331-8.734-3.331-12.066,0l-2.5,2.5l-2.5-2.5
				c-3.348-3.234-8.671-3.188-11.962,0.104c-3.292,3.292-3.338,8.614-0.104,11.962l2.5,2.5l-2.5,2.5
				c-2.218,2.143-3.108,5.315-2.327,8.299c0.781,2.983,3.111,5.314,6.094,6.094c2.983,0.781,6.156-0.109,8.299-2.327l2.5-2.5
				l2.5,2.5c3.348,3.234,8.671,3.188,11.962-0.104c3.292-3.292,3.338-8.614,0.104-11.962l-2.5-2.5l2.5-2.5
				C380.564,339.767,380.564,334.366,377.233,331.034z"/>
			<path style="fill:#428DFF;" d="M158.293,418.833c0.724,0.192,1.47,0.29,2.219,0.29c3.856-0.007,7.228-2.599,8.226-6.323
				l0.922-3.413l3.413,0.913c0.724,0.192,1.47,0.29,2.219,0.29c4.282-0.002,7.899-3.178,8.456-7.423
				c0.557-4.245-2.118-8.246-6.255-9.354l-3.413-0.913l0.922-3.413c0.79-2.945-0.052-6.088-2.208-8.244
				c-2.156-2.156-5.298-2.999-8.243-2.21c-2.945,0.789-5.246,3.089-6.036,6.034l-0.913,3.413l-3.413-0.913
				c-4.543-1.193-9.196,1.51-10.411,6.048c-1.214,4.538,1.467,9.203,5.999,10.439l3.413,0.913l-0.913,3.413
				C151.055,412.927,153.747,417.605,158.293,418.833z"/>
			<path style="fill:#428DFF;" d="M353.707,272.367c-4.55-1.216-9.225,1.484-10.445,6.033l-0.922,3.413l-3.413-0.913
				c-2.945-0.79-6.088,0.052-8.244,2.208c-2.156,2.156-2.999,5.298-2.21,8.243c0.789,2.945,3.089,5.246,6.034,6.036l3.413,0.913
				l-0.922,3.413c-0.586,2.186-0.28,4.516,0.851,6.476c1.131,1.96,2.995,3.391,5.182,3.977c0.724,0.192,1.47,0.29,2.219,0.29
				c3.859-0.003,7.235-2.596,8.235-6.323l0.913-3.413l3.413,0.913c4.543,1.193,9.196-1.51,10.411-6.048
				c1.214-4.538-1.467-9.203-5.999-10.439l-3.413-0.913l0.913-3.413C360.945,278.273,358.253,273.595,353.707,272.367z"/>
			<path style="fill:#428DFF;" d="M222.566,432.64c-0.586-2.186-2.017-4.05-3.977-5.182c-1.96-1.131-4.29-1.438-6.476-0.851
				l-3.413,0.922l-0.913-3.413c-1.221-4.553-5.901-7.254-10.453-6.033c-4.553,1.221-7.254,5.901-6.033,10.453l0.913,3.413
				l-3.413,0.922c-4.12,1.12-6.779,5.112-6.223,9.346c0.556,4.233,4.155,7.404,8.425,7.422c0.749,0.004,1.496-0.094,2.219-0.29
				l3.413-0.913l0.913,3.413c0.999,3.727,4.376,6.32,8.235,6.323c0.749,0.004,1.496-0.094,2.219-0.29
				c4.549-1.22,7.249-5.895,6.033-10.445l-0.913-3.413l3.413-0.913c2.19-0.586,4.057-2.019,5.189-3.983
				C222.854,437.163,223.158,434.829,222.566,432.64z"/>
			<path style="fill:#428DFF;" d="M289.434,258.56c0.999,3.727,4.376,6.32,8.235,6.323c0.749,0,1.495-0.098,2.219-0.29l3.413-0.922
				l0.913,3.413c0.999,3.727,4.376,6.32,8.235,6.323c0.749,0,1.495-0.098,2.219-0.29c2.186-0.586,4.05-2.017,5.182-3.977
				s1.438-4.29,0.851-6.476l-0.913-3.413l3.413-0.922c3.018-0.723,5.406-3.028,6.235-6.018c0.829-2.991-0.03-6.196-2.245-8.37
				c-2.215-2.174-5.435-2.974-8.41-2.09l-3.413,0.913l-0.913-3.413c-1.235-4.532-5.901-7.213-10.439-5.999
				c-4.538,1.214-7.241,5.867-6.048,10.411l0.913,3.413l-3.413,0.913c-2.19,0.586-4.057,2.019-5.189,3.983
				C289.146,254.037,288.842,256.371,289.434,258.56z"/>
		</g>
	</g>
</g>
<g>
</g>
<g>
</g>
<g>
</g>
<g>
</g>
<g>
</g>
<g>
</g>
<g>
</g>
<g>
</g>
<g>
</g>
<g>
</g>
<g>
</g>
<g>
</g>
<g>
</g>
<g>
</g>
<g>
</g>
</svg>
